<svg width="48" height="48" viewBox="0 0 48 48" fill="none" xmlns="http://www.w3.org/2000/svg">
<path fill-rule="evenodd" clip-rule="evenodd" d="M35.9967 20.6817C35.8273 12.5444 29.1779 6 21 6C12.7157 6 6 12.7157 6 21C6 29.1779 12.5444 35.8273 20.6817 35.9967C20.2402 34.7465 20 33.4013 20 32C20 30.8369 20.1655 29.7125 20.4742 28.6489C20.2431 28.6204 20.0627 28.422 20.0627 28.1837V26.7071C18.0119 26.4258 17.0158 25.2891 16.7463 23.7188C16.6994 23.4493 16.9103 23.2149 17.1799 23.2149H18.2463C18.4689 23.2149 18.6564 23.3789 18.7033 23.5899C18.9026 24.5157 19.4416 25.2305 21.0822 25.2305C21.5426 25.2305 21.9536 25.1316 22.2858 24.9534C22.5417 24.6013 22.8162 24.2636 23.1079 23.9419C23.1398 23.8158 23.1564 23.6826 23.1564 23.543C23.1564 22.5352 22.6526 22.1485 20.8713 21.8555C18.2463 21.5039 17.0041 20.7071 17.0041 18.6562C17.0041 17.0743 18.2112 15.8321 20.0627 15.5742V14.1212C20.0627 13.8633 20.2737 13.6524 20.5314 13.6524H21.4689C21.7267 13.6524 21.9377 13.8633 21.9377 14.1212V15.6094C23.4494 15.8789 24.4103 16.7344 24.7267 18.1641C24.7853 18.4337 24.5744 18.6797 24.2932 18.6797H23.3088C23.0978 18.6797 22.9221 18.5391 22.8635 18.3399C22.5939 17.4375 21.9494 17.0391 20.8244 17.0391C19.5823 17.0391 18.9377 17.6368 18.9377 18.4805C18.9377 19.3712 19.301 19.8164 21.2112 20.086C23.2984 20.3706 24.5714 20.9087 24.9805 22.2661C26.5241 21.151 28.3436 20.3941 30.317 20.1171C29.9178 16.5342 27.4937 13.5609 24.2109 12.3632C23.9882 12.2812 23.8125 12.0117 23.8125 11.7772V10.8984C23.8125 10.5468 24.0937 10.3476 24.4218 10.4531C28.6166 11.772 31.7341 15.4946 32.1919 20.0015C33.5241 20.0224 34.8037 20.2604 35.9967 20.6817ZM18.1875 31.4297C18.1875 31.7812 17.9062 31.9804 17.5782 31.875C13.0312 30.4218 9.75 26.1797 9.75 21.1523C9.75 16.1367 13.0312 11.8828 17.5782 10.4297C17.918 10.3242 18.1875 10.5234 18.1875 10.875V11.7539C18.1875 11.9883 18.0118 12.2578 17.7891 12.3398C14.1914 13.6641 11.625 17.1211 11.625 21.1523C11.625 25.1953 14.1914 28.6406 17.7891 29.9531C18.0118 30.0352 18.1875 30.3047 18.1875 30.5391V31.4297Z" fill="#3070DE"/>
<path fill-rule="evenodd" clip-rule="evenodd" d="M42 32C42 37.5228 37.5228 42 32 42C26.4772 42 22 37.5228 22 32C22 26.4772 26.4772 22 32 22C37.5228 22 42 26.4772 42 32ZM38.2761 28.8339C38.3752 28.9032 38.4734 28.9718 38.5704 29.0397C38.7606 29.1643 38.7573 29.4004 38.7475 29.5151V29.5545L38.7245 29.5873C38.2999 30.1971 37.8721 30.8224 37.4564 31.4301L37.4229 31.4791C37.2914 31.6705 37.1599 31.8627 37.0284 32.055C36.9009 32.2414 36.7734 32.4278 36.6459 32.6135C36.3295 33.0741 36.0131 33.5356 35.6967 33.9971C35.3803 34.4585 35.0639 34.92 34.7475 35.3807L32.1508 39.1676C32.0885 39.2791 31.9639 39.3479 31.8229 39.3479H31.7901C31.6393 39.3348 31.518 39.2495 31.4754 39.1184C30.9865 37.7561 30.4895 36.3758 29.9993 35.0146C29.7958 34.4494 29.5935 33.8875 29.3934 33.3315C29.1765 32.7283 28.9577 32.1203 28.7377 31.509C28.0597 29.6249 27.3708 27.7106 26.695 25.8168L26.6885 25.7938V25.643L26.6983 25.6168C26.7147 25.5741 26.7475 25.4987 26.8098 25.4397L26.8491 25.4069C26.8852 25.384 26.9245 25.3676 26.9704 25.361C27.1278 25.3413 27.2754 25.3807 27.4032 25.4168C27.4426 25.4266 27.4786 25.4364 27.5147 25.4463C28.2643 25.6284 29.0129 25.8106 29.7616 25.9928C30.4277 26.1549 31.0938 26.317 31.7606 26.4791C31.8977 26.5125 32.0353 26.546 32.1732 26.5796C33.6046 26.9284 35.0738 27.2865 36.5213 27.6364L36.5278 27.6397C36.6196 27.6692 36.695 27.7217 36.7606 27.7709C36.777 27.7807 36.7901 27.7905 36.8032 27.8004C37.2952 28.1482 37.7961 28.4984 38.2761 28.8339ZM34.8567 30.7708C35.0818 30.653 35.3057 30.5358 35.5278 30.42C36.2262 30.0528 36.9475 29.6758 37.6688 29.3086C37.4918 29.1873 37.318 29.0659 37.1475 28.9446C36.9114 28.7774 36.6655 28.6069 36.4229 28.4397C36.3956 28.4718 36.3666 28.5003 36.3384 28.5278C36.3293 28.5368 36.3202 28.5456 36.3114 28.5545L36.3114 28.5545C36.259 28.6069 36.2098 28.6561 36.1704 28.7086L36.1606 28.7184C36.1009 28.7823 36.041 28.8463 35.9811 28.9105C35.5734 29.3468 35.1612 29.788 34.7639 30.2168L33.6688 31.3905C34.0669 31.1841 34.4637 30.9764 34.8567 30.7708ZM32.5245 31.8069C33.0065 31.2922 33.4918 30.7709 33.9606 30.2627C34.0979 30.1151 34.2363 29.9664 34.3753 29.8169C34.8603 29.2955 35.3541 28.7646 35.8459 28.2397C34.9092 28.012 33.9718 27.7843 33.0343 27.5566C32.0685 27.322 31.1026 27.0874 30.1377 26.8528C29.8 26.7676 29.4557 26.6856 29.1245 26.6069C28.7475 26.5184 28.3639 26.4266 27.9836 26.3282C28.0028 26.3514 28.022 26.3744 28.0411 26.3972C28.0839 26.4484 28.1263 26.499 28.1672 26.5512C28.1964 26.5867 28.2257 26.6229 28.2551 26.6593C28.3179 26.7369 28.3811 26.8152 28.4459 26.8889L28.4491 26.8922C28.6415 27.1237 28.8346 27.3558 29.0278 27.5881C29.2559 27.8624 29.4841 28.1368 29.7114 28.4102C30.636 29.5217 31.5901 30.6725 32.5245 31.8069ZM32.3411 36.3723C32.3311 36.4663 32.3211 36.5599 32.3114 36.6528C32.2688 37.0397 32.2295 37.4364 32.1967 37.8299C32.459 37.4397 32.7278 37.0495 32.9901 36.6692C33.0919 36.52 33.1962 36.3684 33.3011 36.2159C33.4361 36.0197 33.572 35.8221 33.7049 35.6266C34.1742 34.9469 34.6455 34.2592 35.1095 33.5823C35.2386 33.3939 35.3672 33.2063 35.495 33.02C36.177 32.02 36.8819 30.9938 37.5836 29.9774C36.8131 30.3807 36.036 30.7873 35.2786 31.1807C34.5324 31.5666 33.7892 31.9559 33.0461 32.3451L33.0032 32.3676C32.9661 32.3898 32.929 32.4065 32.8919 32.4232C32.8798 32.4286 32.8677 32.4341 32.8557 32.4397C32.8131 32.4561 32.7737 32.4758 32.7377 32.4954C32.718 32.7873 32.6852 33.0791 32.6524 33.361L32.6426 33.4397C32.6092 33.815 32.5687 34.1975 32.5292 34.5711C32.5221 34.638 32.515 34.7046 32.5081 34.7709C32.4884 34.9526 32.4687 35.1402 32.449 35.3277C32.4392 35.421 32.4294 35.5143 32.4196 35.6069C32.3956 35.8607 32.3682 36.118 32.3411 36.3723ZM27.6978 26.9839C27.7123 27.0234 27.7268 27.0629 27.7409 27.102C28.4818 29.1652 29.2227 31.2254 29.9637 33.2857C30.3342 34.3161 30.7048 35.3466 31.0754 36.3774L31.4262 37.3512C31.4721 37.4856 31.5213 37.6233 31.5704 37.7545C31.5767 37.7722 31.5835 37.7904 31.5905 37.8089C31.6015 37.8383 31.6128 37.8685 31.6229 37.8987C31.6363 37.7737 31.649 37.6487 31.6616 37.5243C31.6768 37.3747 31.692 37.2259 31.7081 37.0791C31.7137 37.0259 31.7194 36.9725 31.7251 36.9191C31.7887 36.3203 31.8539 35.7067 31.9081 35.0987L31.9114 35.0758C31.9114 35.0758 31.9639 34.6233 31.9868 34.4233C31.9905 34.3906 31.9944 34.3577 31.9983 34.3247C32.0116 34.2122 32.0251 34.098 32.0327 33.984V33.9807C32.0581 33.7552 32.0804 33.5329 32.1027 33.3106L32.1049 33.2889C32.1192 33.1588 32.1329 33.0267 32.1468 32.8935C32.1679 32.691 32.1893 32.486 32.2131 32.2823C32.1236 32.1831 32.0395 32.0804 31.9567 31.9794C31.9273 31.9434 31.898 31.9077 31.8688 31.8725C31.7836 31.7676 31.695 31.6594 31.6065 31.5577C31.3122 31.2011 31.0178 30.8473 30.7235 30.4936C30.5687 30.3074 30.4138 30.1213 30.259 29.9348C29.3901 28.8922 28.4983 27.8168 27.6131 26.7479C27.6393 26.8246 27.6686 26.9043 27.6978 26.9839Z" fill="#ED1C24"/>
</svg>
