<svg width="48" height="48" viewBox="0 0 48 48" fill="none" xmlns="http://www.w3.org/2000/svg">
<path fill-rule="evenodd" clip-rule="evenodd" d="M42 32C42 37.5228 37.5228 42 32 42C26.4772 42 22 37.5228 22 32C22 26.4772 26.4772 22 32 22C37.5228 22 42 26.4772 42 32ZM38.2761 28.8337C38.3752 28.9029 38.4734 28.9716 38.5704 29.0394C38.7606 29.164 38.7573 29.4001 38.7475 29.5148V29.5542L38.7245 29.587C38.2999 30.1968 37.8721 30.8222 37.4564 31.4298L37.4229 31.4788C37.2914 31.6702 37.1599 31.8625 37.0284 32.0547C36.9009 32.2412 36.7734 32.4276 36.6459 32.6132C36.3295 33.0739 36.0131 33.5354 35.6967 33.9968C35.3803 34.4583 35.0639 34.9198 34.7475 35.3804L32.1508 39.1673C32.0885 39.2788 31.9639 39.3476 31.8229 39.3476H31.7901C31.6393 39.3345 31.518 39.2492 31.4754 39.1181C30.9865 37.7558 30.4895 36.3756 29.9993 35.0143C29.7958 34.4491 29.5935 33.8872 29.3934 33.3312C29.1765 32.7281 28.9577 32.12 28.7377 31.5088C28.0597 29.6247 27.3708 27.7103 26.695 25.8165L26.6885 25.7935V25.6427L26.6983 25.6165C26.7147 25.5738 26.7475 25.4984 26.8098 25.4394L26.8491 25.4066C26.8852 25.3837 26.9245 25.3673 26.9704 25.3607C27.1278 25.341 27.2754 25.3804 27.4032 25.4165C27.4426 25.4263 27.4786 25.4361 27.5147 25.446C28.2643 25.6282 29.0129 25.8104 29.7616 25.9926C30.4277 26.1546 31.0938 26.3167 31.7606 26.4788C31.8977 26.5123 32.0353 26.5458 32.1732 26.5794C33.6046 26.9282 35.0738 27.2862 36.5213 27.6361L36.5278 27.6394C36.6196 27.6689 36.695 27.7214 36.7606 27.7706C36.777 27.7804 36.7901 27.7902 36.8032 27.8001C37.2952 28.148 37.7961 28.4981 38.2761 28.8337ZM34.8567 30.7706C35.0818 30.6527 35.3057 30.5356 35.5278 30.4197C36.2262 30.0525 36.9475 29.6755 37.6688 29.3083C37.4918 29.187 37.318 29.0656 37.1475 28.9443C36.9114 28.7771 36.6655 28.6066 36.4229 28.4394C36.3956 28.4716 36.3666 28.5 36.3384 28.5276C36.3293 28.5365 36.3202 28.5454 36.3114 28.5542L36.3114 28.5542C36.259 28.6066 36.2098 28.6558 36.1704 28.7083L36.1606 28.7181C36.1009 28.782 36.041 28.8461 35.9811 28.9102C35.5734 29.3466 35.1612 29.7878 34.7639 30.2165L33.6688 31.3902C34.0669 31.1839 34.4637 30.9762 34.8567 30.7706ZM32.5245 31.8066C33.0065 31.2919 33.4918 30.7706 33.9606 30.2624C34.0979 30.1149 34.2363 29.9661 34.3753 29.8166C34.8603 29.2952 35.3541 28.7643 35.8459 28.2394C34.9092 28.0117 33.9718 27.784 33.0343 27.5563C32.0685 27.3217 31.1026 27.0871 30.1377 26.8525C29.8 26.7673 29.4557 26.6853 29.1245 26.6066C28.7475 26.5181 28.3639 26.4263 27.9836 26.3279C28.0028 26.3512 28.022 26.3741 28.0411 26.397C28.0839 26.4482 28.1263 26.4988 28.1672 26.5509C28.1964 26.5865 28.2257 26.6227 28.2551 26.659C28.3179 26.7367 28.3811 26.8149 28.4459 26.8886L28.4491 26.8919C28.6415 27.1234 28.8346 27.3556 29.0278 27.5878C29.2559 27.8621 29.4841 28.1365 29.7114 28.4099C30.636 29.5214 31.5901 30.6722 32.5245 31.8066ZM32.3411 36.3721C32.3311 36.4661 32.3211 36.5597 32.3114 36.6525C32.2688 37.0394 32.2295 37.4361 32.1967 37.8296C32.459 37.4394 32.7278 37.0492 32.9901 36.6689C33.0919 36.5198 33.1962 36.3682 33.3011 36.2157C33.4361 36.0195 33.572 35.8219 33.7049 35.6263C34.1742 34.9466 34.6455 34.259 35.1095 33.5821C35.2386 33.3937 35.3672 33.2061 35.495 33.0197C36.177 32.0197 36.8819 30.9935 37.5836 29.9771C36.8131 30.3804 36.036 30.787 35.2786 31.1804C34.5324 31.5664 33.7892 31.9556 33.0461 32.3448L33.0032 32.3673C32.9661 32.3896 32.929 32.4063 32.8919 32.423C32.8798 32.4284 32.8677 32.4338 32.8557 32.4394C32.8131 32.4558 32.7737 32.4755 32.7377 32.4951C32.718 32.787 32.6852 33.0788 32.6524 33.3607L32.6426 33.4394C32.6092 33.8148 32.5687 34.1973 32.5292 34.5708C32.5221 34.6377 32.515 34.7044 32.5081 34.7706C32.4884 34.9524 32.4687 35.1399 32.449 35.3275C32.4392 35.4208 32.4294 35.5141 32.4196 35.6066C32.3956 35.8604 32.3682 36.1177 32.3411 36.3721ZM27.6978 26.9837C27.7123 27.0231 27.7268 27.0626 27.7409 27.1017C28.4818 29.1649 29.2227 31.2252 29.9637 33.2855C30.3342 34.3159 30.7048 35.3463 31.0754 36.3771L31.4262 37.3509C31.4721 37.4853 31.5213 37.623 31.5704 37.7542C31.5767 37.772 31.5835 37.7902 31.5905 37.8087C31.6015 37.8381 31.6128 37.8682 31.6229 37.8984C31.6363 37.7734 31.649 37.6485 31.6616 37.5241C31.6768 37.3744 31.692 37.2256 31.7081 37.0788C31.7137 37.0256 31.7194 36.9723 31.7251 36.9188C31.7887 36.32 31.8539 35.7065 31.9081 35.0984L31.9114 35.0755C31.9114 35.0755 31.9639 34.623 31.9868 34.423C31.9905 34.3903 31.9944 34.3575 31.9983 34.3245C32.0116 34.2119 32.0251 34.0978 32.0327 33.9837V33.9804C32.0581 33.755 32.0804 33.5326 32.1027 33.3104L32.1049 33.2886C32.1192 33.1586 32.1329 33.0265 32.1468 32.8933C32.1679 32.6907 32.1893 32.4858 32.2131 32.282C32.1236 32.1829 32.0395 32.0802 31.9567 31.9791C31.9273 31.9432 31.898 31.9075 31.8688 31.8722C31.7836 31.7673 31.695 31.6591 31.6065 31.5574C31.3122 31.2009 31.0178 30.8471 30.7235 30.4933C30.5687 30.3072 30.4138 30.1211 30.259 29.9345C29.3901 28.8919 28.4983 27.8165 27.6131 26.7476C27.6393 26.8244 27.6686 26.904 27.6978 26.9837Z" fill="#ED1C24"/>
<path fill-rule="evenodd" clip-rule="evenodd" d="M35.9967 20.6817C34.7465 20.2402 33.4013 20 32 20C31.073 20 30.1705 20.1051 29.3039 20.3041C28.2377 19.6483 25.709 19.1488 22.6006 19.0057L22.5982 19.0033V16.7749H27.6987V13.377H13.8128V16.7749H18.9133V19.0033C14.7678 19.1938 11.652 20.0137 11.652 20.9976C11.652 21.9815 14.7703 22.8015 18.9133 22.9944V30.1375H20.1437C20.0491 30.7445 20 31.3665 20 32C20 33.4013 20.2402 34.7465 20.6817 35.9967C12.5444 35.8273 6 29.1779 6 21C6 12.7157 12.7157 6 21 6C29.1779 6 35.8273 12.5444 35.9967 20.6817ZM22.6006 24.5393C23.0779 23.9387 23.6116 23.385 24.1936 22.886C23.6841 22.9325 23.1514 22.9691 22.6006 22.9944V24.5393ZM28.7489 20.4456C27.4232 20.8179 26.1904 21.4121 25.0931 22.1858C24.3349 22.2778 23.4944 22.3464 22.5982 22.3867V22.3843V22.3818C22.4945 22.3891 21.9591 22.4204 20.7678 22.4204C19.8152 22.4204 19.1473 22.3939 18.9109 22.3818V22.3843C15.2477 22.2227 12.5154 21.586 12.5154 20.8216C12.5154 20.0595 15.2501 19.4204 18.9109 19.2588V21.75C19.1497 21.7669 19.8369 21.8079 20.7847 21.8079C21.9229 21.8079 22.4921 21.7597 22.5982 21.75V19.2612C25.6287 19.3972 28.0195 19.8579 28.7489 20.4456Z" fill="#3CA478"/>
</svg>
